<svg width="437" height="265" xmlns="http://www.w3.org/2000/svg" class="svg-inline--fa fa-chevron-right fa-w-10">

 <g width="0" height="0">
  <title width="0" height="0"/>
  <path transform="rotate(450 217.449 132.52) matrix(-1 0 0 1 349.928 -85.7809)" fill="#ec5830" d="M 257.93182858306886 235.26842040298462 L 63.62525858306885 429.57399040298463 C 54.25406858306885 438.9451904029846 39.06098858306885 438.9451904029846 29.690798583068847 429.57399040298463 L 7.028158583068848 406.9113604029846 C -2.3270314169311526 397.55616040298463 -2.3450314169311524 382.3940804029846 6.988168583068847 373.01689040298464 L 160.97949858306885 218.30069040298463 L 6.988168583068847 63.58550040298462 C -2.3450314169311524 54.20831040298462 -2.3270314169311526 39.04623040298462 7.028158583068848 29.69103040298462 L 29.690798583068847 7.028400402984619 C 39.061988583068846 -2.342799597015381 54.25506858306885 -2.342799597015381 63.62525858306885 7.028400402984619 L 257.93082858306883 201.33396040298462 C 267.30201858306884 210.70416040298463 267.30201858306884 225.89723040298463 257.93182858306886 235.26842040298462 z" id="imagebot_6" stroke-width="0" stroke="#ec5830" width="0" height="0"/>
  <line transform="rotate(450 260.375 76.875) matrix(-1 0 0 1 448.5 -99.75)" fill="none" stroke="#ec5830" stroke-dasharray="null" stroke-linecap="null" x1="161.875" y1="176.625" x2="214.375" y2="176.625" id="imagebot_5" width="0" height="0"/>
 </g>
</svg>