<svg width="265" height="437" xmlns="http://www.w3.org/2000/svg" class="svg-inline--fa fa-chevron-right fa-w-10">

 <g width="0" height="0">
  <title width="0" height="0">Layer 1</title>
  <path stroke="#ec5830" stroke-width="0" id="imagebot_1" d="M 257.93181649944535 234.05148472056953 L 63.625250246141945 428.3570511664889 C 54.25405563508002 437.7282457775508 39.06098262647055 437.7282457775508 29.690787822792743 428.3570511664889 L 7.028153847657791 405.694417191354 C -2.327043845258686 396.3392194984374 -2.3450403781722855 381.1771405187347 6.988161552294258 371.7999470633683 L 160.97949465699543 217.0837536052029 L 6.988161552294258 62.368559954421585 C -2.3450403781722855 52.991366499055175 -2.327043845258686 37.82928751935245 7.028153847657791 28.474089826435943 L 29.690787822792743 5.811455851301005 C 39.06198243385464 -3.55973875976089 54.25505544246411 -3.55973875976089 63.625250246141945 5.811455851301005 L 257.9308166920613 200.1170222972204 C 267.30201130312315 209.48721710089814 267.30201130312315 224.6802901095076 257.93181649944535 234.05148472056953 z" fill="#ec5830" width="0" height="0"/>
  <line id="imagebot_2" y2="176.625" x2="214.375" y1="176.625" x1="161.875" stroke-linecap="null" stroke-dasharray="null" stroke="#ec5830" fill="none" width="0" height="0"/>
  <line transform="rotate(169.479 357.412 -79.0284) matrix(-37.7654 0 0 3.91453 8783.82 -337.387)" id="imagebot_3" y2="71.625" x2="223.125" y1="60.375" x1="223.125" stroke-linecap="null" stroke-dasharray="null" stroke="#ec5830" fill="none" width="0" height="0"/>
 </g>
</svg>